PathFileType	4	(X/Y/Z)	SUBJ32_3_walk_RCNL2025.trc
DataRate	CameraRate	NumFrames	NumMarkers	Units	OrigDataRate	OrigDataStartFrame	OrigNumFrames
100	100	13	25	mm	100	246	393
Frame#	Time	R_Shoulder			L_Shoulder			C7			J_Notch			R_Elbow			L_Elbow			R_Wrist			L_Wrist			R_Asis			L_Asis			Sacral			Thoracic			Sternum			R_Thigh_Lateral			R_Knee_Lateral			R_Shank_Lateral			R_Ankle_Lateral			R_Heel			R_Toe			L_Thigh_Lateral			L_Knee_Lateral			L_Shank_Lateral			L_Ankle_Lateral			L_Heel			L_Toe		
		X1	Y1	Z1	X2	Y2	Z2	X3	Y3	Z3	X4	Y4	Z4	X5	Y5	Z5	X6	Y6	Z6	X7	Y7	Z7	X8	Y8	Z8	X9	Y9	Z9	X10	Y10	Z10	X11	Y11	Z11	X12	Y12	Z12	X13	Y13	Z13	X14	Y14	Z14	X15	Y15	Z15	X16	Y16	Z16	X17	Y17	Z17	X18	Y18	Z18	X19	Y19	Z19	X20	Y20	Z20	X21	Y21	Z21	X22	Y22	Z22	X23	Y23	Z23	X24	Y24	Z24	X25	Y25	Z25
246	2.45000000	967.396484	1327.137817	40.425312	958.562561	1340.719849	-328.387329	954.695923	1418.791748	-131.822540	1058.578125	1298.632202	-144.818878	855.456665	1006.285767	134.074997	905.653625	1037.549316	-457.105804	900.873901	759.667755	153.868515	1030.635925	813.095612	-494.165665	1040.851685	878.812134	-53.727375	996.244629	869.346130	-304.758362	824.104187	922.273682	-144.863281	827.128723	1185.815430	-141.326187	1111.537476	1078.132935	-164.019455	1051.104004	531.261230	26.549273	1076.686768	439.185913	-19.850288	1107.064087	279.854309	44.023331	1127.389282	59.793694	-70.572960	1076.082275	48.815048	-122.358429	1259.170166	46.439232	-108.719215	841.050049	543.801025	-387.032379	819.236450	452.019348	-341.555786	692.074463	265.845764	-356.797241	577.161438	120.045082	-255.922668	533.612915	145.677017	-210.309525	678.403687	37.887711	-220.684525
247	2.46000000	980.279236	1327.852295	41.761719	970.223206	1342.741089	-326.971710	967.169006	1420.072510	-130.048767	1070.742554	1299.730347	-143.713379	869.359558	1006.576782	134.878433	913.944092	1039.379395	-454.430328	914.784454	759.992645	154.141365	1034.393311	812.611572	-492.448364	1052.412354	880.560425	-53.123291	1007.661865	870.198547	-303.889038	835.540344	923.570312	-144.390015	838.931091	1187.257446	-140.314667	1123.486694	1079.456177	-163.478195	1060.802979	532.525330	27.562551	1085.540405	440.002686	-18.880192	1113.443604	280.445343	45.008301	1128.390137	59.880138	-70.407761	1076.551270	49.306938	-121.823555	1260.036987	45.017548	-109.365837	857.276733	543.634827	-388.278778	836.839905	451.623901	-343.828033	705.109070	269.393341	-358.683075	586.139343	126.998238	-257.882568	544.447388	155.581055	-212.648407	680.513428	38.217449	-220.761871
248	2.47000000	993.212891	1328.746826	42.968918	981.803101	1344.872192	-325.633820	979.475525	1421.407104	-128.397842	1082.791016	1300.846069	-142.749146	883.313660	1007.075378	135.655701	922.050720	1041.353638	-451.766327	928.930603	760.577789	154.421234	1037.833557	812.264771	-490.563934	1063.828125	882.270874	-52.397221	1018.970703	871.164185	-302.898224	846.870178	924.889221	-143.739426	850.635315	1188.718750	-139.257553	1135.228027	1080.779297	-163.059845	1069.275879	533.235840	28.344908	1093.453735	440.533081	-18.072258	1118.536133	280.703217	45.824310	1129.176514	59.988522	-70.374107	1076.898560	49.700069	-121.463394	1260.706055	44.086498	-110.004799	874.229004	543.442932	-389.740204	855.217896	451.182587	-346.319122	719.207031	272.945404	-360.694153	596.359924	134.244247	-259.810822	556.665955	165.678741	-214.908478	683.311768	38.945732	-220.975784
249	2.48000000	1006.160095	1329.765015	44.043591	993.246948	1347.024902	-324.383453	991.585449	1422.768066	-126.880005	1094.679321	1301.950684	-141.932495	897.282166	1007.725830	136.431961	929.973389	1043.394409	-449.159637	943.313995	761.363190	154.704262	1041.036530	812.007141	-488.542221	1075.098633	883.886841	-51.613228	1030.185425	872.215637	-301.818420	858.099426	926.236816	-142.905014	862.226746	1190.168945	-138.144073	1146.743530	1082.061890	-162.752853	1076.647583	533.449341	28.888912	1100.483032	440.790161	-17.427092	1122.598511	280.673248	46.481926	1129.793823	60.092854	-70.447212	1077.169800	50.026466	-121.271011	1261.225342	43.516865	-110.592789	891.754822	543.250000	-391.313934	874.186279	450.724213	-348.887970	734.348938	276.371521	-362.753052	607.780334	141.692932	-261.640961	570.136780	175.765915	-216.995895	687.099121	40.245564	-221.455582
250	2.49000000	1019.073914	1330.857910	44.986935	1004.502136	1349.122925	-323.231445	1003.482666	1424.139160	-125.498756	1106.373169	1303.039307	-141.260574	911.245911	1008.472473	137.231644	937.718262	1045.428345	-446.650116	957.932312	762.285828	154.984383	1044.072021	811.792206	-486.411270	1086.211548	885.373657	-50.831181	1041.330444	873.339783	-300.700287	869.223083	927.623047	-141.925858	873.690491	1191.597290	-136.976624	1158.037842	1083.288696	-162.530228	1083.207397	533.331238	29.260437	1106.768188	440.839142	-16.910366	1125.939819	280.449219	47.016628	1130.282593	60.178493	-70.579727	1077.393799	50.314377	-121.206245	1261.621582	43.196850	-111.093964	909.678772	543.093323	-392.879456	893.574829	450.295990	-351.388000	750.499817	279.555847	-364.772797	620.329407	149.239655	-263.306671	584.688599	185.619431	-218.809769	692.232788	42.253178	-222.333847
251	2.50000000	1031.897827	1331.988892	45.803436	1015.525269	1351.108154	-322.188660	1015.162292	1425.514038	-124.251152	1117.851807	1304.125610	-140.723145	925.200684	1009.266663	138.073029	945.296814	1047.394409	-444.268097	972.777863	763.289795	155.255753	1046.998169	811.582672	-484.197281	1097.145142	886.722107	-50.091595	1052.432739	874.532593	-299.600891	880.226624	929.051086	-140.879929	885.012512	1193.006714	-135.771286	1169.133789	1084.466431	-162.355087	1089.295288	533.084839	29.567154	1112.492798	440.774902	-16.462793	1128.849487	280.146515	47.474350	1130.673462	60.242378	-70.717957	1077.585938	50.584290	-121.214951	1261.909912	43.036957	-111.483093	927.820007	543.022766	-394.327484	913.246582	449.960510	-353.700470	767.591003	282.429626	-366.671631	633.927917	156.758453	-264.755310	600.143860	195.007935	-220.258087	699.082520	45.020454	-223.713257
252	2.51000000	1044.569458	1333.135742	46.499630	1026.287231	1352.943726	-321.265015	1026.624878	1426.891846	-123.130478	1129.110840	1305.232056	-140.305344	939.150024	1010.070190	138.965958	952.724609	1049.248535	-442.030914	987.837982	764.333557	155.513634	1049.861267	811.354584	-481.923630	1107.875122	887.949524	-49.404770	1063.513306	875.789673	-298.565460	891.091187	930.515137	-139.866440	896.181885	1194.405029	-134.556641	1180.064575	1085.615845	-162.187927	1095.192749	532.890076	29.916361	1117.828613	440.689056	-16.020199	1131.542114	279.863464	47.894749	1130.989624	60.290619	-70.820038	1077.754150	50.849197	-121.248108	1262.103882	42.969406	-111.748726	946.010193	543.094421	-395.581299	933.102356	449.788696	-355.754364	785.509521	284.994690	-368.382690	648.506714	164.096115	-265.961761	616.349060	203.704910	-221.279999	707.977173	48.491482	-225.635986
253	2.52000000	1057.029297	1334.291138	47.083237	1036.774902	1354.612305	-320.468689	1037.872681	1428.273071	-122.130287	1140.160645	1306.379761	-139.991135	953.096558	1010.859619	139.911758	960.019897	1050.964844	-439.941437	1003.098175	765.393982	155.755463	1052.695618	811.097992	-479.609390	1118.382324	889.094910	-48.751003	1074.585327	877.102051	-297.615234	901.800720	932.002930	-138.984360	907.193665	1195.800171	-133.367218	1190.864746	1086.764771	-161.993942	1101.051636	532.861938	30.376339	1122.883179	440.639526	-15.537696	1134.137329	279.650085	48.297718	1131.250977	60.332497	-70.867668	1077.901489	51.115517	-121.272255	1262.219604	42.945747	-111.893990	964.114319	543.359741	-396.605988	953.072571	449.849396	-357.527954	804.106384	287.320465	-369.860016	664.019409	171.071182	-266.933746	633.187988	211.500961	-221.871399	719.161682	52.512566	-228.060013
254	2.53000000	1069.229004	1335.460205	47.562527	1046.991089	1356.112427	-319.804840	1048.909790	1429.656738	-121.247147	1151.020752	1307.582397	-139.766418	967.038513	1011.630310	140.904068	967.201721	1052.534668	-437.989563	1018.544861	766.466797	155.981979	1055.524109	810.814819	-477.266785	1128.654175	890.206238	-48.092098	1085.659302	878.458069	-296.747894	912.346741	933.500610	-138.312912	918.049622	1197.195190	-132.235291	1201.564209	1087.939453	-161.747955	1106.878784	533.030518	30.954868	1127.678101	440.639160	-15.004136	1136.669434	279.506134	48.679352	1131.474731	60.373016	-70.868881	1078.028442	51.384007	-121.271225	1262.275513	42.934353	-111.933601	982.050964	543.854797	-397.407166	973.106689	450.197540	-359.036102	823.221802	289.509338	-371.081512	680.444885	177.479355	-267.708099	650.578491	218.215286	-222.099701	732.772705	56.864960	-230.851929
255	2.54000000	1081.136719	1336.655518	47.945599	1056.951782	1357.455200	-319.274353	1059.744385	1431.038940	-120.482285	1161.713013	1308.842773	-139.620483	980.968262	1012.395142	141.930923	974.287109	1053.961182	-436.154877	1034.164856	767.564575	156.196442	1058.360474	810.513977	-474.898773	1138.683960	891.323975	-47.387218	1096.745605	879.847473	-295.945221	922.728760	934.995850	-137.897797	928.755188	1198.588257	-131.187973	1212.183960	1089.157959	-161.436569	1112.572388	533.356384	31.603577	1132.171143	440.669708	-14.439501	1139.102905	279.407104	49.019260	1131.670532	60.408081	-70.851357	1078.134766	51.652451	-121.244896	1262.290161	42.918007	-111.889900	999.803040	544.593628	-398.021484	993.165833	450.864777	-360.312439	842.716919	291.646729	-372.049255	697.779907	183.110107	-268.341400	668.464966	223.705490	-222.091446	748.832397	61.304985	-233.810928
256	2.55000000	1092.737915	1337.891479	48.239300	1066.680664	1358.658203	-318.872681	1070.389526	1432.411377	-119.843048	1172.255005	1310.152588	-139.545410	994.872375	1013.176514	142.977783	981.288452	1055.254272	-434.411346	1049.943542	768.711884	156.402397	1061.212524	810.205627	-472.498840	1148.472778	892.470032	-46.605568	1107.853027	881.264038	-295.179932	932.953674	936.479065	-137.746841	939.316650	1199.974487	-130.247620	1222.733276	1090.424683	-161.057816	1117.993286	533.769897	32.243019	1136.305786	440.705994	-13.882246	1141.352661	279.332977	49.293156	1131.838379	60.428665	-70.848198	1078.224121	51.918713	-121.209404	1262.281250	42.891247	-111.788780	1017.408691	545.568604	-398.500031	1013.217102	451.855865	-361.393250	862.497803	293.766022	-372.787262	716.023682	187.772766	-268.896027	686.812683	227.872589	-221.995743	767.256714	65.599586	-236.718170
257	2.56000000	1104.034424	1339.180542	48.448586	1076.205811	1359.739990	-318.590973	1080.862671	1433.762939	-119.341171	1182.657349	1311.493896	-139.535172	1008.730591	1013.995911	144.028793	988.211243	1056.425903	-432.732269	1065.862732	769.938538	156.602333	1064.084412	809.896942	-470.055054	1158.035156	893.646729	-45.732853	1118.983521	882.705261	-294.421631	943.035767	937.941895	-137.835724	949.740601	1201.347900	-129.431091	1233.210449	1091.730347	-160.619354	1123.032471	534.207031	32.794090	1140.054199	440.730347	-13.376561	1143.316772	279.275848	49.480087	1131.976685	60.432487	-70.884773	1078.307617	52.182095	-121.195412	1262.265015	42.857056	-111.655785	1034.933350	546.758301	-398.891022	1033.227173	453.150452	-362.307556	882.518677	295.844818	-373.336823	735.162537	191.321640	-269.423645	705.605957	230.659821	-221.942169	787.877014	69.550980	-239.388641
258	2.57000000	1115.041748	1340.529175	48.576778	1085.557495	1360.717163	-318.419006	1091.180298	1435.083618	-118.985641	1192.925049	1312.843872	-139.585220	1022.515015	1014.866150	145.066284	995.056091	1057.485840	-431.092255	1081.900574	771.272522	156.797913	1066.979187	809.591797	-467.556549	1167.399536	894.839661	-44.772247	1130.129883	884.168518	-293.644348	952.995789	939.374512	-138.120773	960.033936	1202.697754	-128.748596	1243.605469	1093.055298	-160.134827	1127.653198	534.625427	33.202442	1143.433105	440.735229	-12.963893	1144.926025	279.233093	49.562927	1132.090210	60.428341	-70.974304	1078.400513	52.443016	-121.236732	1262.255737	42.823185	-111.513054	1052.433838	548.138367	-399.228333	1053.155518	454.709167	-363.072937	902.768005	297.818481	-373.746979	755.165161	193.668289	-269.953552	724.850952	232.046768	-222.010513	810.468079	73.008636	-241.707214
